<svg xmlns="http://www.w3.org/2000/svg" width="128" height="128" viewBox="0 0 128 128">
  <title>BUDGET</title>
  <g>
    <path d="M64.543,38.852s27.483,15.007,28.99,46.906a32.861,32.861,0,0,1-22.449,32.965,64.856,64.856,0,0,1-20.008,2.97,64.856,64.856,0,0,1-20.008-2.97A32.861,32.861,0,0,1,8.619,85.758c1.507-31.9,28.99-46.906,28.99-46.906Z" fill="#64d465"/>
    <path d="M64.543,31.252l8.488-19.047s-7.517-5.9-21.955-5.9-21.955,5.9-21.955,5.9l8.488,19.047Z" fill="#64d465"/>
    <circle cx="51.076" cy="80.272" r="24.199" transform="translate(-43.002 66.07) rotate(-48.947)" fill="#f4dd45"/>
    <circle cx="51.076" cy="80.272" r="16.6" transform="translate(-42.66 63.963) rotate(-47.662)" fill="#fcc101"/>
    <rect x="37.609" y="31.252" width="26.935" height="7.6" fill="#477b9e"/>
    <rect x="67.676" y="51.254" width="51.742" height="70.439" rx="4.003" fill="#477b9e"/>
    <rect x="74.705" y="58.292" width="37.685" height="14.202" fill="#dbedff"/>
    <rect x="89.544" y="79.522" width="8.007" height="7.029" fill="#f4dd45"/>
    <rect x="104.383" y="79.522" width="8.007" height="7.029" fill="#f4dd45"/>
    <rect x="74.705" y="79.522" width="8.007" height="7.029" fill="#f4dd45"/>
    <rect x="89.544" y="93.579" width="8.007" height="7.029" fill="#f4dd45"/>
    <rect x="104.383" y="93.579" width="8.007" height="21.085" fill="#f87c68"/>
    <rect x="74.705" y="93.579" width="8.007" height="7.029" fill="#f4dd45"/>
    <rect x="89.544" y="107.636" width="8.007" height="7.028" fill="#f4dd45"/>
    <rect x="74.705" y="107.636" width="8.007" height="7.028" fill="#f4dd45"/>
    <path d="M52.437,90.271v1.816H49.856v-1.9a11.629,11.629,0,0,1-6.609-3.035l2.043-2.525a9.7,9.7,0,0,0,4.566,2.44V81.534c-3.489-.907-5.843-2.155-5.843-5.5,0-3.064,2.354-5.418,5.843-5.844v-1.73h2.581v1.759a10.547,10.547,0,0,1,5.957,2.637l-1.928,2.61a9.269,9.269,0,0,0-4.029-2.127V78.67c3.887.879,6.468,2.212,6.468,5.673C58.905,87.605,56.551,89.988,52.437,90.271ZM49.856,77.989V73.28a2.678,2.678,0,0,0-2.269,2.44C47.587,76.854,48.325,77.45,49.856,77.989Zm5.5,6.694c0-1.305-.907-1.9-2.922-2.5v5.049C54.367,87.009,55.359,85.931,55.359,84.683Z" fill="#f4dd45"/>
  </g>
</svg>
